<svg width="22" height="22" viewBox="0 0 22 22" fill="none" xmlns="http://www.w3.org/2000/svg">
<g clip-path="url(#clip0_55704_3156)">
<path d="M16.4453 16.445C14.8784 17.6394 12.9703 18.3011 11.0003 18.3333C4.58366 18.3333 0.916992 11 0.916992 11C2.05722 8.87505 3.6387 7.01854 5.55533 5.55498M9.07533 3.88665C9.7063 3.73896 10.3523 3.66513 11.0003 3.66665C17.417 3.66665 21.0837 11 21.0837 11C20.5272 12.041 19.8636 13.021 19.1037 13.9241M12.9437 12.9433C12.6919 13.2135 12.3883 13.4302 12.051 13.5805C11.7136 13.7308 11.3495 13.8116 10.9802 13.8182C10.611 13.8247 10.2442 13.7567 9.9018 13.6184C9.55938 13.4801 9.24832 13.2743 8.98719 13.0131C8.72605 12.752 8.52019 12.4409 8.38188 12.0985C8.24357 11.7561 8.17564 11.3893 8.18216 11.0201C8.18867 10.6508 8.26949 10.2867 8.4198 9.94934C8.5701 9.61201 8.78681 9.30841 9.05699 9.05665" stroke="#F6B83D" stroke-width="2" stroke-linecap="round" stroke-linejoin="round"/>
<path d="M0.916992 0.916626L21.0837 21.0833" stroke="#F6B83D" stroke-width="2" stroke-linecap="round" stroke-linejoin="round"/>
</g>
<defs>
<clipPath id="clip0_55704_3156">
<rect width="22" height="22" fill="white"/>
</clipPath>
</defs>
</svg>
