<svg width="76" height="23" viewBox="0 0 76 23" fill="none" xmlns="http://www.w3.org/2000/svg">
<path d="M6.59 18.3C5.53667 18.3 4.65333 18.05 3.94 17.55C3.22667 17.05 2.69 16.37 2.33 15.51C1.97 14.6433 1.79 13.6733 1.79 12.6C1.79 11.5133 1.97 10.54 2.33 9.68C2.69 8.82 3.21667 8.14333 3.91 7.65C4.61 7.15 5.47333 6.9 6.5 6.9C7.52 6.9 8.40333 7.15 9.15 7.65C9.90333 8.14333 10.4867 8.82 10.9 9.68C11.3133 10.5333 11.52 11.5067 11.52 12.6C11.52 13.68 11.3167 14.65 10.91 15.51C10.5033 16.37 9.93 17.05 9.19 17.55C8.45 18.05 7.58333 18.3 6.59 18.3ZM1.38 22.8V7.2H3.51V14.78H3.81V22.8H1.38ZM6.22 16.14C6.84667 16.14 7.36333 15.9833 7.77 15.67C8.17667 15.3567 8.47667 14.9333 8.67 14.4C8.87 13.86 8.97 13.26 8.97 12.6C8.97 11.9467 8.87 11.3533 8.67 10.82C8.47 10.28 8.16 9.85333 7.74 9.54C7.32 9.22 6.78667 9.06 6.14 9.06C5.52667 9.06 5.02667 9.21 4.64 9.51C4.25333 9.80333 3.96667 10.2167 3.78 10.75C3.6 11.2767 3.51 11.8933 3.51 12.6C3.51 13.3 3.6 13.9167 3.78 14.45C3.96667 14.9833 4.25667 15.4 4.65 15.7C5.05 15.9933 5.57333 16.14 6.22 16.14ZM17.8342 18.3C16.7409 18.3 15.7809 18.0633 14.9542 17.59C14.1276 17.1167 13.4809 16.46 13.0142 15.62C12.5542 14.78 12.3242 13.8133 12.3242 12.72C12.3242 11.54 12.5509 10.5167 13.0042 9.65C13.4576 8.77667 14.0876 8.1 14.8942 7.62C15.7009 7.14 16.6342 6.9 17.6942 6.9C18.8142 6.9 19.7642 7.16333 20.5442 7.69C21.3309 8.21 21.9142 8.94667 22.2942 9.9C22.6742 10.8533 22.8176 11.9767 22.7242 13.27H20.3342V12.39C20.3276 11.2167 20.1209 10.36 19.7142 9.82C19.3076 9.28 18.6676 9.01 17.7942 9.01C16.8076 9.01 16.0742 9.31667 15.5942 9.93C15.1142 10.5367 14.8742 11.4267 14.8742 12.6C14.8742 13.6933 15.1142 14.54 15.5942 15.14C16.0742 15.74 16.7742 16.04 17.6942 16.04C18.2876 16.04 18.7976 15.91 19.2242 15.65C19.6576 15.3833 19.9909 15 20.2242 14.5L22.6042 15.22C22.1909 16.1933 21.5509 16.95 20.6842 17.49C19.8242 18.03 18.8742 18.3 17.8342 18.3ZM14.1142 13.27V11.45H21.5442V13.27H14.1142ZM30.4855 18C29.7721 18.1333 29.0721 18.19 28.3855 18.17C27.7055 18.1567 27.0955 18.0333 26.5555 17.8C26.0155 17.56 25.6055 17.1833 25.3255 16.67C25.0788 16.2033 24.9488 15.7267 24.9355 15.24C24.9221 14.7533 24.9155 14.2033 24.9155 13.59V4.2H27.3155V13.45C27.3155 13.8833 27.3188 14.2633 27.3255 14.59C27.3388 14.9167 27.4088 15.1833 27.5355 15.39C27.7755 15.79 28.1588 16.0133 28.6855 16.06C29.2121 16.1067 29.8121 16.08 30.4855 15.98V18ZM22.9555 9.09V7.2H30.4855V9.09H22.9555ZM32.2078 18V3.3H34.6178V18H32.2078Z" fill="#262626"/>
<path fill-rule="evenodd" clip-rule="evenodd" d="M45.4955 7.01679C44.136 5.41155 41.8688 4.97975 40.1654 6.44966C38.462 7.91958 38.2221 10.3772 39.5598 12.1157C40.4167 13.2292 42.611 15.294 44.078 16.6347C44.5654 17.0803 44.8092 17.3031 45.1012 17.3924C45.3521 17.4692 45.6389 17.4692 45.8899 17.3924C46.1819 17.3031 46.4256 17.0803 46.9131 16.6347C48.3801 15.294 50.5744 13.2292 51.4312 12.1157C52.7689 10.3772 52.5584 7.90411 50.8257 6.44966C49.093 4.99521 46.8551 5.41155 45.4955 7.01679Z" fill="#F6B83D"/>
<path d="M58.32 18L54.4 7.2H56.81L59.53 15.03L62.24 7.2H64.66L60.74 18H58.32ZM70.1741 18.3C69.0807 18.3 68.1207 18.0633 67.2941 17.59C66.4674 17.1167 65.8207 16.46 65.3541 15.62C64.8941 14.78 64.6641 13.8133 64.6641 12.72C64.6641 11.54 64.8907 10.5167 65.3441 9.65C65.7974 8.77667 66.4274 8.1 67.2341 7.62C68.0407 7.14 68.9741 6.9 70.0341 6.9C71.1541 6.9 72.1041 7.16333 72.8841 7.69C73.6707 8.21 74.2541 8.94667 74.6341 9.9C75.0141 10.8533 75.1574 11.9767 75.0641 13.27H72.6741V12.39C72.6674 11.2167 72.4607 10.36 72.0541 9.82C71.6474 9.28 71.0074 9.01 70.1341 9.01C69.1474 9.01 68.4141 9.31667 67.9341 9.93C67.4541 10.5367 67.2141 11.4267 67.2141 12.6C67.2141 13.6933 67.4541 14.54 67.9341 15.14C68.4141 15.74 69.1141 16.04 70.0341 16.04C70.6274 16.04 71.1374 15.91 71.5641 15.65C71.9974 15.3833 72.3307 15 72.5641 14.5L74.9441 15.22C74.5307 16.1933 73.8907 16.95 73.0241 17.49C72.1641 18.03 71.2141 18.3 70.1741 18.3ZM66.4541 13.27V11.45H73.8841V13.27H66.4541Z" fill="#262626"/>
</svg>
