<svg width="106" height="32" viewBox="0 0 106 32" fill="none" xmlns="http://www.w3.org/2000/svg">
<path d="M9.38 25.42C7.87733 25.42 6.622 25.07 5.614 24.37C4.606 23.67 3.84533 22.718 3.332 21.514C2.828 20.31 2.576 18.952 2.576 17.44C2.576 15.928 2.828 14.57 3.332 13.366C3.836 12.162 4.578 11.21 5.558 10.51C6.538 9.81 7.74667 9.46 9.184 9.46C10.6307 9.46 11.8907 9.80533 12.964 10.496C14.0373 11.1867 14.868 12.134 15.456 13.338C16.0533 14.5327 16.352 15.9 16.352 17.44C16.352 18.952 16.058 20.31 15.47 21.514C14.8913 22.718 14.0793 23.67 13.034 24.37C11.9887 25.07 10.7707 25.42 9.38 25.42ZM1.932 31.72V9.88H5.292V20.24H5.768V31.72H1.932ZM8.764 22.032C9.58533 22.032 10.2573 21.8267 10.78 21.416C11.3027 21.0053 11.69 20.4547 11.942 19.764C12.194 19.064 12.32 18.2893 12.32 17.44C12.32 16.6 12.1893 15.8347 11.928 15.144C11.6667 14.444 11.2607 13.8887 10.71 13.478C10.1687 13.058 9.47333 12.848 8.624 12.848C7.83067 12.848 7.18667 13.0393 6.692 13.422C6.20667 13.8047 5.852 14.3413 5.628 15.032C5.404 15.7227 5.292 16.5253 5.292 17.44C5.292 18.3547 5.404 19.1573 5.628 19.848C5.852 20.5387 6.216 21.0753 6.72 21.458C7.23333 21.8407 7.91467 22.032 8.764 22.032ZM25.3407 25.42C23.7913 25.42 22.424 25.0887 21.2387 24.426C20.0627 23.754 19.1387 22.8347 18.4667 21.668C17.804 20.492 17.4727 19.148 17.4727 17.636C17.4727 15.984 17.7993 14.5467 18.4527 13.324C19.106 12.1013 20.0067 11.154 21.1547 10.482C22.3027 9.80067 23.6233 9.46 25.1167 9.46C26.7033 9.46 28.052 9.83333 29.1627 10.58C30.2733 11.3267 31.0947 12.3767 31.6267 13.73C32.1587 15.0833 32.3453 16.6747 32.1867 18.504H28.4207V17.104C28.4207 15.564 28.1733 14.458 27.6787 13.786C27.1933 13.1047 26.3953 12.764 25.2847 12.764C23.9873 12.764 23.0307 13.1607 22.4147 13.954C21.808 14.738 21.5047 15.9 21.5047 17.44C21.5047 18.8493 21.808 19.9413 22.4147 20.716C23.0307 21.4813 23.9313 21.864 25.1167 21.864C25.8633 21.864 26.5027 21.7007 27.0347 21.374C27.5667 21.0473 27.9727 20.576 28.2527 19.96L32.0607 21.052C31.4913 22.4333 30.5907 23.5067 29.3587 24.272C28.136 25.0373 26.7967 25.42 25.3407 25.42ZM20.3287 18.504V15.676H30.3527V18.504H20.3287ZM43.2998 25C42.2545 25.196 41.2278 25.28 40.2198 25.252C39.2211 25.2333 38.3251 25.0607 37.5318 24.734C36.7478 24.398 36.1505 23.8613 35.7398 23.124C35.3665 22.4333 35.1705 21.7333 35.1518 21.024C35.1331 20.3053 35.1238 19.4933 35.1238 18.588V5.68H38.9318V18.364C38.9318 18.952 38.9365 19.484 38.9458 19.96C38.9645 20.4267 39.0625 20.8 39.2398 21.08C39.5758 21.612 40.1125 21.9013 40.8498 21.948C41.5871 21.9947 42.4038 21.9573 43.2998 21.836V25ZM32.5478 12.82V9.88H43.2998V12.82H32.5478ZM45.8292 25V4.42H49.6372V25H45.8292Z" fill="white"/>
<path fill-rule="evenodd" clip-rule="evenodd" d="M63.4935 10.4345C61.6541 8.26268 58.5868 7.67848 56.2821 9.66718C53.9775 11.6559 53.653 14.9809 55.4629 17.333C56.6221 18.8395 59.5909 21.6331 61.5756 23.447C62.2351 24.0498 62.5649 24.3512 62.9599 24.4721C63.2995 24.576 63.6875 24.576 64.0271 24.4721C64.4221 24.3512 64.7519 24.0498 65.4114 23.447C67.3961 21.6331 70.3649 18.8395 71.5241 17.333C73.334 14.9809 73.0491 11.635 70.7049 9.66718C68.3606 7.6994 65.3329 8.26268 63.4935 10.4345Z" fill="white"/>
<path d="M81.048 25L75.56 9.88H78.934L82.742 20.842L86.536 9.88H89.924L84.436 25H81.048ZM97.6437 25.42C96.113 25.42 94.769 25.0887 93.6117 24.426C92.4544 23.7633 91.549 22.844 90.8957 21.668C90.2517 20.492 89.9297 19.1387 89.9297 17.608C89.9297 15.956 90.247 14.5233 90.8817 13.31C91.5164 12.0873 92.3984 11.14 93.5277 10.468C94.657 9.796 95.9637 9.46 97.4477 9.46C99.0157 9.46 100.346 9.82867 101.438 10.566C102.539 11.294 103.356 12.3253 103.888 13.66C104.42 14.9947 104.62 16.5673 104.49 18.378H101.144V17.146C101.134 15.5033 100.845 14.304 100.276 13.548C99.7064 12.792 98.8104 12.414 97.5877 12.414C96.2064 12.414 95.1797 12.8433 94.5077 13.702C93.8357 14.5513 93.4997 15.7973 93.4997 17.44C93.4997 18.9707 93.8357 20.156 94.5077 20.996C95.1797 21.836 96.1597 22.256 97.4477 22.256C98.2784 22.256 98.9924 22.074 99.5897 21.71C100.196 21.3367 100.663 20.8 100.99 20.1L104.322 21.108C103.743 22.4707 102.847 23.53 101.634 24.286C100.43 25.042 99.0997 25.42 97.6437 25.42ZM92.4357 18.378V15.83H102.838V18.378H92.4357Z" fill="white"/>
</svg>
