<svg width="48" height="48" viewBox="0 0 48 48" fill="none" xmlns="http://www.w3.org/2000/svg">
<rect width="48" height="48" rx="24" fill="#FFF4DF"/>
<path d="M30.6301 18.4575C30.247 18.0743 29.7922 17.7703 29.2916 17.5628C28.791 17.3554 28.2545 17.2487 27.7126 17.2487C27.1707 17.2487 26.6342 17.3554 26.1336 17.5628C25.633 17.7703 25.1782 18.0743 24.7951 18.4575L24.0001 19.2525L23.2051 18.4575C22.4313 17.6838 21.3819 17.2491 20.2876 17.2491C19.1933 17.2491 18.1439 17.6838 17.3701 18.4575C16.5963 19.2313 16.1616 20.2808 16.1616 21.375C16.1616 22.4693 16.5963 23.5188 17.3701 24.2925L18.1651 25.0875L24.0001 30.9225L29.8351 25.0875L30.6301 24.2925C31.0133 23.9095 31.3174 23.4546 31.5248 22.954C31.7322 22.4534 31.839 21.9169 31.839 21.375C31.839 20.8332 31.7322 20.2966 31.5248 19.796C31.3174 19.2954 31.0133 18.8406 30.6301 18.4575Z" stroke="#F6B83D" stroke-width="1.5" stroke-linecap="round" stroke-linejoin="round"/>
</svg>
