<svg width="105" height="32" viewBox="0 0 105 32" fill="none" xmlns="http://www.w3.org/2000/svg">
<path d="M9.226 25.42C7.75133 25.42 6.51467 25.07 5.516 24.37C4.51733 23.67 3.766 22.718 3.262 21.514C2.758 20.3007 2.506 18.9427 2.506 17.44C2.506 15.9187 2.758 14.556 3.262 13.352C3.766 12.148 4.50333 11.2007 5.474 10.51C6.454 9.81 7.66267 9.46 9.1 9.46C10.528 9.46 11.7647 9.81 12.81 10.51C13.8647 11.2007 14.6813 12.148 15.26 13.352C15.8387 14.5467 16.128 15.9093 16.128 17.44C16.128 18.952 15.8433 20.31 15.274 21.514C14.7047 22.718 13.902 23.67 12.866 24.37C11.83 25.07 10.6167 25.42 9.226 25.42ZM1.932 31.72V9.88H4.914V20.492H5.334V31.72H1.932ZM8.708 22.396C9.58533 22.396 10.3087 22.1767 10.878 21.738C11.4473 21.2993 11.8673 20.7067 12.138 19.96C12.418 19.204 12.558 18.364 12.558 17.44C12.558 16.5253 12.418 15.6947 12.138 14.948C11.858 14.192 11.424 13.5947 10.836 13.156C10.248 12.708 9.50133 12.484 8.596 12.484C7.73733 12.484 7.03733 12.694 6.496 13.114C5.95467 13.5247 5.55333 14.1033 5.292 14.85C5.04 15.5873 4.914 16.4507 4.914 17.44C4.914 18.42 5.04 19.2833 5.292 20.03C5.55333 20.7767 5.95933 21.36 6.51 21.78C7.07 22.1907 7.80267 22.396 8.708 22.396ZM24.9679 25.42C23.4372 25.42 22.0932 25.0887 20.9359 24.426C19.7786 23.7633 18.8732 22.844 18.2199 21.668C17.5759 20.492 17.2539 19.1387 17.2539 17.608C17.2539 15.956 17.5712 14.5233 18.2059 13.31C18.8406 12.0873 19.7226 11.14 20.8519 10.468C21.9812 9.796 23.2879 9.46 24.7719 9.46C26.3399 9.46 27.6699 9.82867 28.7619 10.566C29.8632 11.294 30.6799 12.3253 31.2119 13.66C31.7439 14.9947 31.9446 16.5673 31.8139 18.378H28.4679V17.146C28.4586 15.5033 28.1692 14.304 27.5999 13.548C27.0306 12.792 26.1346 12.414 24.9119 12.414C23.5306 12.414 22.5039 12.8433 21.8319 13.702C21.1599 14.5513 20.8239 15.7973 20.8239 17.44C20.8239 18.9707 21.1599 20.156 21.8319 20.996C22.5039 21.836 23.4839 22.256 24.7719 22.256C25.6026 22.256 26.3166 22.074 26.9139 21.71C27.5206 21.3367 27.9872 20.8 28.3139 20.1L31.6459 21.108C31.0672 22.4707 30.1712 23.53 28.9579 24.286C27.7539 25.042 26.4239 25.42 24.9679 25.42ZM19.7599 18.378V15.83H30.1619V18.378H19.7599ZM42.6797 25C41.681 25.1867 40.701 25.266 39.7397 25.238C38.7877 25.2193 37.9337 25.0467 37.1777 24.72C36.4217 24.384 35.8477 23.8567 35.4557 23.138C35.1103 22.4847 34.9283 21.8173 34.9097 21.136C34.891 20.4547 34.8817 19.6847 34.8817 18.826V5.68H38.2417V18.63C38.2417 19.2367 38.2463 19.7687 38.2557 20.226C38.2743 20.6833 38.3723 21.0567 38.5497 21.346C38.8857 21.906 39.4223 22.2187 40.1597 22.284C40.897 22.3493 41.737 22.312 42.6797 22.172V25ZM32.1377 12.526V9.88H42.6797V12.526H32.1377ZM45.0909 25V4.42H48.4649V25H45.0909Z" fill="#262626"/>
<path fill-rule="evenodd" clip-rule="evenodd" d="M62.4935 10.4345C60.6541 8.26268 57.5868 7.67848 55.2821 9.66718C52.9775 11.6559 52.653 14.9809 54.4629 17.333C55.6221 18.8395 58.5909 21.6331 60.5756 23.447C61.2351 24.0498 61.5649 24.3512 61.9599 24.4721C62.2995 24.576 62.6875 24.576 63.0271 24.4721C63.4221 24.3512 63.7519 24.0498 64.4114 23.447C66.3961 21.6331 69.3649 18.8395 70.5241 17.333C72.334 14.9809 72.0491 11.635 69.7049 9.66718C67.3606 7.6994 64.3329 8.26268 62.4935 10.4345Z" fill="#F6B83D"/>
<path d="M80.048 25L74.56 9.88H77.934L81.742 20.842L85.536 9.88H88.924L83.436 25H80.048ZM96.6437 25.42C95.113 25.42 93.769 25.0887 92.6117 24.426C91.4544 23.7633 90.549 22.844 89.8957 21.668C89.2517 20.492 88.9297 19.1387 88.9297 17.608C88.9297 15.956 89.247 14.5233 89.8817 13.31C90.5164 12.0873 91.3984 11.14 92.5277 10.468C93.657 9.796 94.9637 9.46 96.4477 9.46C98.0157 9.46 99.3457 9.82867 100.438 10.566C101.539 11.294 102.356 12.3253 102.888 13.66C103.42 14.9947 103.62 16.5673 103.49 18.378H100.144V17.146C100.134 15.5033 99.845 14.304 99.2757 13.548C98.7064 12.792 97.8104 12.414 96.5877 12.414C95.2064 12.414 94.1797 12.8433 93.5077 13.702C92.8357 14.5513 92.4997 15.7973 92.4997 17.44C92.4997 18.9707 92.8357 20.156 93.5077 20.996C94.1797 21.836 95.1597 22.256 96.4477 22.256C97.2784 22.256 97.9924 22.074 98.5897 21.71C99.1964 21.3367 99.663 20.8 99.9897 20.1L103.322 21.108C102.743 22.4707 101.847 23.53 100.634 24.286C99.4297 25.042 98.0997 25.42 96.6437 25.42ZM91.4357 18.378V15.83H101.838V18.378H91.4357Z" fill="#262626"/>
</svg>
