<svg width="18" height="18" viewBox="0 0 18 18" fill="none" xmlns="http://www.w3.org/2000/svg">
<path d="M12 12L9 9L6 12" stroke="#F6B83D" stroke-width="1.3" stroke-linecap="round" stroke-linejoin="round"/>
<path d="M9 9V15.75" stroke="#F6B83D" stroke-width="1.3" stroke-linecap="round" stroke-linejoin="round"/>
<path d="M15.2926 13.7925C16.0241 13.3937 16.602 12.7627 16.935 11.999C17.268 11.2353 17.3372 10.3824 17.1317 9.57502C16.9262 8.76761 16.4577 8.05164 15.8001 7.54009C15.1425 7.02854 14.3332 6.75055 13.5001 6.75H12.5551C12.3281 5.87193 11.905 5.05675 11.3175 4.36575C10.7301 3.67474 9.99372 3.12589 9.16366 2.76046C8.3336 2.39503 7.4315 2.22252 6.52518 2.25592C5.61885 2.28931 4.73189 2.52773 3.93097 2.95325C3.13006 3.37878 2.43602 3.98033 1.90106 4.71269C1.36609 5.44505 1.00411 6.28916 0.842327 7.18155C0.680545 8.07394 0.723171 8.9914 0.967002 9.86495C1.21083 10.7385 1.64952 11.5454 2.25009 12.225" stroke="#F6B83D" stroke-width="1.3" stroke-linecap="round" stroke-linejoin="round"/>
<path d="M12 12L9 9L6 12" stroke="#F6B83D" stroke-width="1.3" stroke-linecap="round" stroke-linejoin="round"/>
</svg>
